# xmcd CD database file
#
# Track frame offsets:
#	150
#	12187
#	27985
#	42355
#	55755
#	68232
#	81312
#	90265
#	102612
#	118290
#	127370
#	137970
#	152410
#	166797
#	180662
#	190357
#	201492
#	211815
#
# Disc length: 2939 seconds
#
# Revision: 2
# Processed by: cddbd v1.5.1PL0 Copyright (c) Steve Scherf et al.
# Submitted via: CDex 1.50
#
DISCID=040b7912
DTITLE=GONTITI - Magic Wand of?Standards?,A
DYEAR=2002
DGENRE=New Age
TTITLE0=????????????
TTITLE1=?????????
TTITLE2=?????
TTITLE3=????
TTITLE4=??
TTITLE5=?????????
TTITLE6=????
TTITLE7=????????
TTITLE8=?????????????
TTITLE9=????
TTITLE10=???????
TTITLE11=???????
TTITLE12=???? ?? ??????
TTITLE13=?????????????????
TTITLE14=?????????????
TTITLE15=???????
TTITLE16=??????
TTITLE17=???????
EXTD=YEAR: 2002
EXTT0=
EXTT1=
EXTT2=
EXTT3=
EXTT4=
EXTT5=
EXTT6=
EXTT7=
EXTT8=
EXTT9=
EXTT10=
EXTT11=
EXTT12=
EXTT13=
EXTT14=
EXTT15=
EXTT16=
EXTT17=
PLAYORDER=
